<svg width="50" height="50" viewBox="0 0 50 50" fill="none" xmlns="http://www.w3.org/2000/svg">
<mask id="mask0_176_52" style="mask-type:alpha" maskUnits="userSpaceOnUse" x="0" y="0" width="50" height="50">
<rect width="50" height="50" fill="#D9D9D9"/>
</mask>
<g mask="url(#mask0_176_52)">
<path d="M18.5549 50C16.3083 50 14.3882 49.2294 12.7947 47.6881C11.2011 46.1468 10.3783 44.2529 10.326 42.0063C7.87043 41.5361 5.83281 40.3344 4.21317 38.4013C2.59352 36.4681 1.7837 34.2215 1.7837 31.6614C1.7837 30.7425 1.90125 29.8346 2.13636 28.9376C2.37147 28.0406 2.72414 27.1983 3.19436 26.4107C2.4629 25.5225 1.91432 24.5222 1.54859 23.4099C1.18286 22.2975 1 21.1295 1 19.906C1 17.1864 1.90125 14.8346 3.70376 12.8505C5.50627 10.8666 7.73981 9.74399 10.4044 9.48276C10.3521 9.27377 10.326 9.06479 10.326 8.8558V8.15047C10.326 5.85162 11.1228 3.9185 12.7163 2.3511C14.3098 0.783699 16.256 0 18.5549 0C20.1223 0 21.4284 0.31348 22.4734 0.940439C23.5183 1.5674 24.5632 2.50784 25.6081 3.76176C26.7053 2.50784 27.7503 1.5674 28.7429 0.940439C29.7356 0.31348 31.0418 0 32.6614 0C34.8863 0 36.8009 0.796761 38.4053 2.39028C40.0097 3.9838 40.8119 5.90387 40.8119 8.15047V8.8558C40.8119 9.06479 40.7858 9.27377 40.7335 9.48276C43.3981 9.74399 45.6447 10.8542 47.4734 12.8135C49.302 14.7727 50.2163 17.1369 50.2163 19.906C50.2163 21.1295 50.0204 22.2975 49.6285 23.4099C49.2367 24.5222 48.675 25.5225 47.9436 26.4107C48.4138 27.1944 48.7795 28.0354 49.0408 28.9337C49.302 29.832 49.4326 30.7412 49.4326 31.6614C49.4326 34.2738 48.6228 36.5465 47.0031 38.4796C45.3835 40.4128 43.3197 41.5883 40.8119 42.0063C40.7597 44.2529 39.9498 46.1468 38.3824 47.6881C36.815 49.2294 34.908 50 32.6614 50C30.9896 50 29.6703 49.6865 28.7038 49.0596C27.7372 48.4326 26.7053 47.466 25.6081 46.1599C24.511 47.466 23.466 48.4326 22.4734 49.0596C21.4807 49.6865 20.1745 50 18.5549 50ZM26.7053 8.15047V41.8495C26.7053 43.5172 27.2843 44.9269 28.4423 46.0784C29.6004 47.2299 31.0179 47.8056 32.6951 47.8056C34.2923 47.8056 35.6526 47.2571 36.7759 46.1599C37.8992 45.0627 38.5131 43.7304 38.6176 42.163C36.9457 42.1108 35.3913 41.7059 33.9545 40.9483C32.5178 40.1907 31.3292 39.1327 30.3887 37.7743C30.1797 37.5131 30.0993 37.2431 30.1474 36.9645C30.1955 36.6858 30.3543 36.4594 30.6238 36.2853C30.8851 36.0763 31.1649 35.9959 31.4635 36.044C31.7621 36.0921 32.0046 36.2509 32.1912 36.5204C32.9575 37.635 33.9328 38.4883 35.117 39.0805C36.3013 39.6726 37.5726 39.9687 38.931 39.9687C41.2821 39.9687 43.2544 39.1719 44.848 37.5784C46.4415 35.9849 47.2382 34.0125 47.2382 31.6614C47.2382 31.0519 47.1599 30.4423 47.0031 29.8328C46.8464 29.2233 46.6374 28.6311 46.3762 28.0564C45.488 28.7879 44.4666 29.3626 43.3119 29.7806C42.1573 30.1985 40.9582 30.4075 39.7147 30.4075C39.4039 30.4075 39.1433 30.3021 38.933 30.0913C38.7227 29.8805 38.6176 29.6193 38.6176 29.3076C38.6176 28.996 38.7227 28.7356 38.933 28.5266C39.1433 28.3177 39.4039 28.2132 39.7147 28.2132C42.0658 28.2132 44.0381 27.4164 45.6317 25.8229C47.2252 24.2294 48.0219 22.2571 48.0219 19.906C48.0219 17.6362 47.2513 15.7103 45.71 14.1284C44.1688 12.5464 42.2748 11.7032 40.0282 11.5987C39.558 12.5914 38.918 13.4535 38.1082 14.185C37.2983 14.9164 36.3709 15.4911 35.326 15.9091C35.0648 16.0136 34.7998 16.0049 34.5311 15.883C34.2624 15.761 34.0833 15.5608 33.9937 15.2821C33.8892 15.0209 33.8892 14.7466 33.9937 14.4592C34.0982 14.1719 34.3072 13.976 34.6207 13.8715C35.8224 13.4535 36.7889 12.722 37.5204 11.6771C38.2518 10.6322 38.6176 9.44357 38.6176 8.11129C38.6176 6.46552 38.0414 5.06792 36.889 3.9185C35.7366 2.76907 34.326 2.19436 32.6571 2.19436C30.9881 2.19436 29.5789 2.77012 28.4295 3.92163C27.28 5.07315 26.7053 6.48276 26.7053 8.15047ZM24.511 41.8495V8.15047C24.511 6.48276 23.9348 5.07315 22.7824 3.92163C21.63 2.77012 20.2194 2.19436 18.5505 2.19436C16.8815 2.19436 15.4723 2.77012 14.3229 3.92163C13.1735 5.07315 12.5987 6.48276 12.5987 8.15047C12.5987 9.45664 12.9645 10.6322 13.6959 11.6771C14.4274 12.722 15.3939 13.4535 16.5956 13.8715C16.8568 13.976 17.0658 14.1588 17.2226 14.4201C17.3793 14.6813 17.4099 14.9482 17.3143 15.2208C17.1997 15.4934 16.999 15.6893 16.7122 15.8085C16.4255 15.9278 16.1254 15.9352 15.8119 15.8307C14.767 15.4127 13.8396 14.8511 13.0298 14.1458C12.22 13.4404 11.5799 12.5914 11.1097 11.5987C8.91536 11.7032 7.04754 12.5522 5.50627 14.1458C3.96499 15.7393 3.19436 17.6678 3.19436 19.9313C3.19436 22.2655 3.99112 24.2294 5.58464 25.8229C7.17816 27.4164 9.15047 28.2132 11.5016 28.2132C11.8124 28.2132 12.073 28.3186 12.2833 28.5294C12.4936 28.7402 12.5987 29.0014 12.5987 29.3131C12.5987 29.6247 12.4936 29.8851 12.2833 30.094C12.073 30.303 11.8124 30.4075 11.5016 30.4075C10.2581 30.4075 9.05904 30.1985 7.90439 29.7806C6.74974 29.3626 5.72832 28.7879 4.84013 28.0564C4.57889 28.6311 4.36991 29.2233 4.21317 29.8328C4.05643 30.4423 3.97806 31.0519 3.97806 31.6614C3.97806 34.0125 4.77482 35.9849 6.36834 37.5784C7.96186 39.1719 9.93417 39.9687 12.2853 39.9687C13.6591 39.9687 14.93 39.6682 16.0978 39.0674C17.2656 38.4666 18.2414 37.6176 19.0251 36.5204C19.2117 36.2509 19.4542 36.0921 19.7528 36.044C20.0514 35.9959 20.3312 36.0632 20.5925 36.2461C20.8537 36.4289 21.0104 36.6641 21.0627 36.9514C21.1149 37.2388 21.0366 37.5131 20.8276 37.7743C19.8349 39.1327 18.6202 40.1907 17.1834 40.9483C15.7466 41.7059 14.1923 42.1108 12.5204 42.163C12.6249 43.7304 13.2518 45.0627 14.4013 46.1599C15.5507 47.2571 16.924 47.8056 18.5212 47.8056C20.1984 47.8056 21.6159 47.2299 22.774 46.0784C23.932 44.9269 24.511 43.5172 24.511 41.8495Z" fill="white"/>
</g>
</svg>
