<svg width="50" height="50" viewBox="0 0 50 50" fill="none" xmlns="http://www.w3.org/2000/svg">
<mask id="mask0_176_40" style="mask-type:alpha" maskUnits="userSpaceOnUse" x="0" y="0" width="50" height="50">
<rect width="50" height="50" fill="#D9D9D9"/>
</mask>
<g mask="url(#mask0_176_40)">
<path d="M24.773 31.8966C27.2155 31.8966 29.3348 31.1063 31.1307 29.5259C32.9267 27.9454 33.8247 26.0057 33.8247 23.7069C33.8247 21.7912 33.2261 20.1509 32.0287 18.7859C30.8314 17.421 29.3228 16.7385 27.5029 16.7385C26.0182 16.7385 24.7251 17.2294 23.6236 18.2112C22.522 19.193 21.9713 20.3784 21.9713 21.7672C21.9713 22.3898 22.103 22.9885 22.3664 23.5632C22.6298 24.1379 23.001 24.6887 23.4799 25.2155L25.1322 23.8506C24.749 23.5632 24.4617 23.2519 24.2701 22.9167C24.0785 22.5814 23.9828 22.2222 23.9828 21.8391C23.9828 21.1207 24.2821 20.4382 24.8807 19.7917C25.4794 19.1451 26.3534 18.8218 27.5029 18.8218C28.6523 18.8218 29.658 19.2648 30.5201 20.1509C31.3822 21.0369 31.8132 22.2462 31.8132 23.7787C31.8132 25.4071 31.1667 26.8319 29.8736 28.0532C28.5805 29.2744 26.9042 29.8851 24.8448 29.8851C22.546 29.8851 20.5584 28.9751 18.8822 27.1552C17.2059 25.3352 16.3678 23.0364 16.3678 20.2586C16.3678 18.8697 16.6432 17.5287 17.194 16.2356C17.7447 14.9425 18.5469 13.7692 19.6006 12.7155L18.092 11.2787C16.8946 12.4761 15.9607 13.841 15.2902 15.3736C14.6197 16.9061 14.2845 18.5105 14.2845 20.1868C14.2845 23.3956 15.2902 26.1494 17.3017 28.4483C19.3132 30.7471 21.8036 31.8966 24.773 31.8966ZM10.6207 50V39.6552C7.8908 37.1648 5.77155 34.3989 4.26293 31.3578C2.75431 28.3166 2 25.2155 2 22.0546C2 15.9243 4.15517 10.716 8.46552 6.4296C12.7759 2.1432 17.9962 0 24.1264 0C29.0594 0 33.5493 1.52059 37.5963 4.56178C41.6432 7.60297 44.2653 11.5182 45.4626 16.3075L48.1925 27.227C48.3841 27.8975 48.2644 28.5081 47.8333 29.0589C47.4023 29.6097 46.8276 29.8851 46.1092 29.8851H40.5057V39.9425C40.5057 41.1398 40.0867 42.1576 39.2486 42.9957C38.4104 43.8338 37.3927 44.2529 36.1954 44.2529H29.0115V50H27V42.2414H36.1954C36.8659 42.2414 37.4167 42.0259 37.8477 41.5948C38.2787 41.1638 38.4943 40.613 38.4943 39.9425V27.8736H46.2529L43.523 16.7385C42.4215 12.3324 40.0508 8.77634 36.4109 6.0704C32.7711 3.36446 28.6762 2.01149 24.1264 2.01149C18.5709 2.01149 13.8295 3.96312 9.9023 7.86638C5.9751 11.7696 4.01149 16.499 4.01149 22.0546C4.01149 24.9282 4.59818 27.6461 5.77155 30.2083C6.94492 32.7706 8.6092 35.0575 10.7644 37.069L12.6322 38.7931V50H10.6207Z" fill="white"/>
</g>
</svg>
