<svg width="50" height="50" viewBox="0 0 50 50" fill="none" xmlns="http://www.w3.org/2000/svg">
<mask id="mask0_176_46" style="mask-type:alpha" maskUnits="userSpaceOnUse" x="0" y="0" width="50" height="50">
<rect width="50" height="50" fill="#D9D9D9"/>
</mask>
<g mask="url(#mask0_176_46)">
<path d="M0 39.3651V35.2381C0 34.0741 0.357143 32.9762 1.07143 31.9444C1.78571 30.9127 2.75132 30.1058 3.96825 29.5238C6.87831 28.1481 9.77513 27.1164 12.6587 26.4286C15.5423 25.7407 18.4127 25.3968 21.2698 25.3968C22.8042 25.3968 24.3386 25.496 25.873 25.6944C27.4074 25.8929 28.9418 26.1905 30.4762 26.5873V28.8095C28.9418 28.3862 27.4074 28.082 25.873 27.8968C24.3386 27.7116 22.8042 27.619 21.2698 27.619C18.4854 27.619 15.7258 27.9497 12.991 28.6111C10.2563 29.2725 7.61905 30.2116 5.07937 31.4286C4.17989 31.9048 3.47884 32.4735 2.97619 33.1349C2.47354 33.7963 2.22222 34.4974 2.22222 35.2381V37.1429H30.4762V39.3651H0ZM21.2698 17.1429C18.9127 17.1429 16.8948 16.3036 15.2163 14.625C13.5377 12.9464 12.6984 10.9286 12.6984 8.57143C12.6984 6.21429 13.5377 4.19643 15.2163 2.51786C16.8948 0.839286 18.9127 0 21.2698 0C23.627 0 25.6448 0.839286 27.3234 2.51786C29.002 4.19643 29.8413 6.21429 29.8413 8.57143C29.8413 10.9286 29.002 12.9464 27.3234 14.625C25.6448 16.3036 23.627 17.1429 21.2698 17.1429ZM21.2698 14.9206C23.0159 14.9206 24.5106 14.2989 25.754 13.0556C26.9974 11.8122 27.619 10.3175 27.619 8.57143C27.619 6.8254 26.9974 5.33069 25.754 4.0873C24.5106 2.84392 23.0159 2.22222 21.2698 2.22222C19.5238 2.22222 18.0291 2.84392 16.7857 4.0873C15.5423 5.33069 14.9206 6.8254 14.9206 8.57143C14.9206 10.3175 15.5423 11.8122 16.7857 13.0556C18.0291 14.2989 19.5238 14.9206 21.2698 14.9206ZM42.381 50V39.0476H38.4127V24.9206H49.6825L44.0476 36.0317H49.4444L42.381 50Z" fill="white"/>
</g>
</svg>
