<svg width="50" height="50" viewBox="0 0 50 50" fill="none" xmlns="http://www.w3.org/2000/svg">
<mask id="mask0_176_34" style="mask-type:alpha" maskUnits="userSpaceOnUse" x="0" y="0" width="50" height="50">
<rect width="50" height="50" fill="#D9D9D9"/>
</mask>
<g mask="url(#mask0_176_34)">
<path d="M25 38.5057C27.5862 38.5057 29.9808 37.7993 32.1839 36.3865C34.387 34.9737 36.0632 33.0939 37.2126 30.7471H12.7874C13.9368 33.0939 15.613 34.9737 17.8161 36.3865C20.0192 37.7993 22.4138 38.5057 25 38.5057ZM12.931 20.546L16.092 17.3851L19.2529 20.546L20.6897 19.1092L16.092 14.5115L11.4943 19.1092L12.931 20.546ZM30.7471 20.546L33.908 17.3851L37.069 20.546L38.5057 19.1092L33.908 14.5115L29.3103 19.1092L30.7471 20.546ZM25.0125 50C21.5559 50 18.3056 49.3441 15.2616 48.0323C12.2176 46.7204 9.56976 44.94 7.31803 42.6912C5.06636 40.4423 3.28376 37.7977 1.97026 34.7576C0.656753 31.7175 0 28.4691 0 25.0125C0 21.5559 0.655915 18.3056 1.96774 15.2616C3.27962 12.2176 5.05999 9.56978 7.30884 7.3181C9.55773 5.06638 12.2023 3.28376 15.2424 1.97026C18.2825 0.656753 21.5309 0 24.9875 0C28.4441 0 31.6944 0.655915 34.7384 1.96774C37.7824 3.27962 40.4302 5.05999 42.6819 7.30884C44.9336 9.55774 46.7162 12.2023 48.0297 15.2424C49.3432 18.2825 50 21.5309 50 24.9875C50 28.4441 49.3441 31.6944 48.0323 34.7384C46.7204 37.7824 44.94 40.4302 42.6912 42.682C40.4423 44.9336 37.7977 46.7162 34.7576 48.0297C31.7175 49.3432 28.4691 50 25.0125 50ZM25 47.9885C31.4176 47.9885 36.8534 45.7615 41.3075 41.3075C45.7615 36.8534 47.9885 31.4176 47.9885 25C47.9885 18.5824 45.7615 13.1466 41.3075 8.69253C36.8534 4.23851 31.4176 2.01149 25 2.01149C18.5824 2.01149 13.1466 4.23851 8.69253 8.69253C4.23851 13.1466 2.01149 18.5824 2.01149 25C2.01149 31.4176 4.23851 36.8534 8.69253 41.3075C13.1466 45.7615 18.5824 47.9885 25 47.9885Z" fill="white"/>
</g>
</svg>
