<svg width="131" height="20" viewBox="0 0 131 20" fill="none" xmlns="http://www.w3.org/2000/svg">
<path d="M0.5 4.5C0.5 2.29086 2.29086 0.5 4.5 0.5H126.5C128.709 0.5 130.5 2.29086 130.5 4.5V15.5C130.5 17.7091 128.709 19.5 126.5 19.5H4.5C2.29086 19.5 0.5 17.7091 0.5 15.5V4.5Z" fill="white"/>
<path d="M18.1211 6.04688H19.3994L22.6602 14.1611L25.9141 6.04688H27.1992L23.1523 16H22.1543L18.1211 6.04688ZM17.7041 6.04688H18.832L19.0166 12.1172V16H17.7041V6.04688ZM26.4814 6.04688H27.6094V16H26.2969V12.1172L26.4814 6.04688ZM33.7344 6.92871L30.4395 16H29.0928L32.8867 6.04688H33.7549L33.7344 6.92871ZM36.4961 16L33.1943 6.92871L33.1738 6.04688H34.042L37.8496 16H36.4961ZM36.3252 12.3154V13.3955H30.7334V12.3154H36.3252ZM40.5977 6.04688V16H39.2783V6.04688H40.5977ZM48.3018 13.4844C48.3018 13.252 48.2653 13.0469 48.1924 12.8691C48.124 12.6868 48.001 12.5228 47.8232 12.377C47.6501 12.2311 47.4085 12.0921 47.0986 11.96C46.7933 11.8278 46.4059 11.6934 45.9365 11.5566C45.4443 11.4108 45 11.249 44.6035 11.0713C44.207 10.889 43.8675 10.6816 43.585 10.4492C43.3024 10.2168 43.0859 9.9502 42.9355 9.64941C42.7852 9.34863 42.71 9.00456 42.71 8.61719C42.71 8.22982 42.7897 7.87207 42.9492 7.54395C43.1087 7.21582 43.3366 6.93099 43.6328 6.68945C43.9336 6.44336 44.2913 6.25195 44.7061 6.11523C45.1208 5.97852 45.5833 5.91016 46.0938 5.91016C46.8411 5.91016 47.4746 6.05371 47.9941 6.34082C48.5182 6.62337 48.917 6.99479 49.1904 7.45508C49.4639 7.91081 49.6006 8.39844 49.6006 8.91797H48.2881C48.2881 8.54427 48.2083 8.21387 48.0488 7.92676C47.8893 7.63509 47.6478 7.40723 47.3242 7.24316C47.0007 7.07454 46.5905 6.99023 46.0938 6.99023C45.6243 6.99023 45.237 7.06087 44.9316 7.20215C44.6263 7.34342 44.3984 7.53483 44.248 7.77637C44.1022 8.0179 44.0293 8.29362 44.0293 8.60352C44.0293 8.81315 44.0726 9.00456 44.1592 9.17773C44.2503 9.34635 44.3893 9.50358 44.5762 9.64941C44.7676 9.79525 45.0091 9.92969 45.3008 10.0527C45.597 10.1758 45.9502 10.2943 46.3604 10.4082C46.9255 10.5677 47.4131 10.7454 47.8232 10.9414C48.2334 11.1374 48.5706 11.3584 48.835 11.6045C49.1038 11.846 49.3021 12.1217 49.4297 12.4316C49.5618 12.737 49.6279 13.0833 49.6279 13.4707C49.6279 13.8763 49.5459 14.2432 49.3818 14.5713C49.2178 14.8994 48.9831 15.1797 48.6777 15.4121C48.3724 15.6445 48.0055 15.8245 47.5771 15.9521C47.1533 16.0752 46.6794 16.1367 46.1553 16.1367C45.695 16.1367 45.2415 16.0729 44.7949 15.9453C44.3529 15.8177 43.9495 15.6263 43.585 15.3711C43.2249 15.1159 42.9355 14.8014 42.7168 14.4277C42.5026 14.0495 42.3955 13.612 42.3955 13.1152H43.708C43.708 13.457 43.7741 13.751 43.9062 13.9971C44.0384 14.2386 44.2184 14.4391 44.4463 14.5986C44.6787 14.7581 44.9408 14.8766 45.2324 14.9541C45.5286 15.027 45.8363 15.0635 46.1553 15.0635C46.6156 15.0635 47.0052 14.9997 47.3242 14.8721C47.6432 14.7445 47.8848 14.5622 48.0488 14.3252C48.2174 14.0882 48.3018 13.8079 48.3018 13.4844ZM58.4531 12.0967H55.7939V11.0234H58.4531C58.9681 11.0234 59.3851 10.9414 59.7041 10.7773C60.0231 10.6133 60.2555 10.3854 60.4014 10.0938C60.5518 9.80208 60.627 9.4694 60.627 9.0957C60.627 8.75391 60.5518 8.43262 60.4014 8.13184C60.2555 7.83105 60.0231 7.58952 59.7041 7.40723C59.3851 7.22038 58.9681 7.12695 58.4531 7.12695H56.1016V16H54.7822V6.04688H58.4531C59.2051 6.04688 59.8408 6.17676 60.3604 6.43652C60.8799 6.69629 61.2741 7.05632 61.543 7.5166C61.8118 7.97233 61.9463 8.49414 61.9463 9.08203C61.9463 9.72005 61.8118 10.2646 61.543 10.7158C61.2741 11.167 60.8799 11.5111 60.3604 11.748C59.8408 11.9805 59.2051 12.0967 58.4531 12.0967ZM71.2773 10.709V11.3379C71.2773 12.0853 71.1839 12.7552 70.9971 13.3477C70.8102 13.9401 70.5413 14.4437 70.1904 14.8584C69.8395 15.2731 69.418 15.5898 68.9258 15.8086C68.4382 16.0273 67.8913 16.1367 67.2852 16.1367C66.6973 16.1367 66.1572 16.0273 65.665 15.8086C65.1774 15.5898 64.7536 15.2731 64.3936 14.8584C64.0381 14.4437 63.7624 13.9401 63.5664 13.3477C63.3704 12.7552 63.2725 12.0853 63.2725 11.3379V10.709C63.2725 9.96159 63.3682 9.29395 63.5596 8.70605C63.7555 8.11361 64.0312 7.61003 64.3867 7.19531C64.7422 6.77604 65.1637 6.45703 65.6514 6.23828C66.1436 6.01953 66.6836 5.91016 67.2715 5.91016C67.8776 5.91016 68.4245 6.01953 68.9121 6.23828C69.4043 6.45703 69.8258 6.77604 70.1768 7.19531C70.5322 7.61003 70.8034 8.11361 70.9902 8.70605C71.1816 9.29395 71.2773 9.96159 71.2773 10.709ZM69.9717 11.3379V10.6953C69.9717 10.1029 69.9102 9.57878 69.7871 9.12305C69.6686 8.66732 69.4932 8.28451 69.2607 7.97461C69.0283 7.66471 68.7435 7.43001 68.4062 7.27051C68.0736 7.111 67.6953 7.03125 67.2715 7.03125C66.8613 7.03125 66.4899 7.111 66.1572 7.27051C65.8291 7.43001 65.5465 7.66471 65.3096 7.97461C65.0771 8.28451 64.8971 8.66732 64.7695 9.12305C64.6419 9.57878 64.5781 10.1029 64.5781 10.6953V11.3379C64.5781 11.9349 64.6419 12.4635 64.7695 12.9238C64.8971 13.3796 65.0794 13.7646 65.3164 14.0791C65.5579 14.389 65.8428 14.6237 66.1709 14.7832C66.5036 14.9427 66.875 15.0225 67.2852 15.0225C67.7135 15.0225 68.0941 14.9427 68.4268 14.7832C68.7594 14.6237 69.0397 14.389 69.2676 14.0791C69.5 13.7646 69.6755 13.3796 69.7939 12.9238C69.9124 12.4635 69.9717 11.9349 69.9717 11.3379ZM76.9238 12.0967H74.2646V11.0234H76.9238C77.4388 11.0234 77.8558 10.9414 78.1748 10.7773C78.4938 10.6133 78.7262 10.3854 78.8721 10.0938C79.0225 9.80208 79.0977 9.4694 79.0977 9.0957C79.0977 8.75391 79.0225 8.43262 78.8721 8.13184C78.7262 7.83105 78.4938 7.58952 78.1748 7.40723C77.8558 7.22038 77.4388 7.12695 76.9238 7.12695H74.5723V16H73.2529V6.04688H76.9238C77.6758 6.04688 78.3115 6.17676 78.8311 6.43652C79.3506 6.69629 79.7448 7.05632 80.0137 7.5166C80.2826 7.97233 80.417 8.49414 80.417 9.08203C80.417 9.72005 80.2826 10.2646 80.0137 10.7158C79.7448 11.167 79.3506 11.5111 78.8311 11.748C78.3115 11.9805 77.6758 12.0967 76.9238 12.0967ZM87.7793 6.04688H89.0918V12.7803C89.0918 13.5277 88.9255 14.1497 88.5928 14.6465C88.2601 15.1432 87.818 15.5169 87.2666 15.7676C86.7197 16.0137 86.125 16.1367 85.4824 16.1367C84.8079 16.1367 84.1973 16.0137 83.6504 15.7676C83.1081 15.5169 82.6774 15.1432 82.3584 14.6465C82.0439 14.1497 81.8867 13.5277 81.8867 12.7803V6.04688H83.1924V12.7803C83.1924 13.2998 83.2881 13.7282 83.4795 14.0654C83.6709 14.4027 83.9375 14.6533 84.2793 14.8174C84.6257 14.9814 85.0267 15.0635 85.4824 15.0635C85.9427 15.0635 86.3438 14.9814 86.6855 14.8174C87.0319 14.6533 87.3008 14.4027 87.4922 14.0654C87.6836 13.7282 87.7793 13.2998 87.7793 12.7803V6.04688ZM97.1992 14.9268V16H92.2227V14.9268H97.1992ZM92.4824 6.04688V16H91.1631V6.04688H92.4824ZM102.531 6.92871L99.2363 16H97.8896L101.684 6.04688H102.552L102.531 6.92871ZM105.293 16L101.991 6.92871L101.971 6.04688H102.839L106.646 16H105.293ZM105.122 12.3154V13.3955H99.5303V12.3154H105.122ZM107.979 6.04688H111.274C112.022 6.04688 112.653 6.16081 113.168 6.38867C113.688 6.61654 114.082 6.95378 114.351 7.40039C114.624 7.84245 114.761 8.38704 114.761 9.03418C114.761 9.48991 114.667 9.9069 114.48 10.2852C114.298 10.6589 114.034 10.9779 113.688 11.2422C113.346 11.502 112.936 11.6956 112.457 11.8232L112.088 11.9668H108.991L108.978 10.8936H111.315C111.789 10.8936 112.184 10.8115 112.498 10.6475C112.812 10.4788 113.049 10.2533 113.209 9.9707C113.368 9.68815 113.448 9.37598 113.448 9.03418C113.448 8.65137 113.373 8.31641 113.223 8.0293C113.072 7.74219 112.835 7.52116 112.512 7.36621C112.193 7.20671 111.78 7.12695 111.274 7.12695H109.299V16H107.979V6.04688ZM113.797 16L111.377 11.4883L112.751 11.4814L115.205 15.918V16H113.797Z" fill="#1D192B"/>
</svg>
